<svg width="40" height="40" viewBox="0 0 40 40" fill="none" xmlns="http://www.w3.org/2000/svg">
    <path d="M19.9999 27.0587C19.3528 27.0587 18.8234 26.5292 18.8234 25.8822C18.8234 21.3528 15.1175 17.6469 10.5881 17.6469C9.94103 17.6469 9.41162 17.1175 9.41162 16.4704C9.41162 15.8234 9.94103 15.2939 10.5881 15.2939C16.441 15.2939 21.1763 20.0292 21.1763 25.8822C21.1763 26.5292 20.6469 27.0587 19.9999 27.0587Z" fill="url(#paint0_linear)" />
    <path d="M30.5882 16.4704C30.5882 17.1175 30.0588 17.6469 29.4117 17.6469C26.6176 17.6469 24.1176 19.0587 22.647 21.2057C22.3235 20.3822 21.9411 19.6175 21.4705 18.9116C23.4117 16.6763 26.2646 15.2939 29.4117 15.2939C30.0588 15.2939 30.5882 15.8234 30.5882 16.4704Z" fill="url(#paint1_linear)" />
    <path d="M20 40C8.97059 40 0 31.0294 0 20C0 8.97059 8.97059 0 20 0C31.0294 0 40 8.97059 40 20C40 31.0294 31.0294 40 20 40ZM20 2.35294C10.2647 2.35294 2.35294 10.2647 2.35294 20C2.35294 29.7353 10.2647 37.6471 20 37.6471C29.7353 37.6471 37.6471 29.7353 37.6471 20C37.6471 10.2647 29.7353 2.35294 20 2.35294Z" fill="url(#paint2_linear)" />
    <defs>
        <linearGradient id="paint0_linear" x1="15.294" y1="15.2939" x2="15.294" y2="27.0587" gradientUnits="userSpaceOnUse">
            <stop stop-color="#BC9CFF" />
            <stop offset="1" stop-color="#8BA4F9" />
        </linearGradient>
        <linearGradient id="paint1_linear" x1="26.0293" y1="15.2939" x2="26.0293" y2="21.2057" gradientUnits="userSpaceOnUse">
            <stop stop-color="#6FCF97" />
            <stop offset="1" stop-color="#66D2EA" />
        </linearGradient>
        <linearGradient id="paint2_linear" x1="20" y1="0" x2="20" y2="40" gradientUnits="userSpaceOnUse">
            <stop stop-color="#BC9CFF" />
            <stop offset="1" stop-color="#8BA4F9" />
        </linearGradient>
    </defs>
</svg>