<svg width="320" height="44" viewBox="0 0 320 44" fill="none" xmlns="http://www.w3.org/2000/svg">
    <path d="M0 22C0 9.84974 9.84974 0 22 0H298C310.15 0 320 9.84974 320 22C320 34.1503 310.15 44 298 44H22C9.84974 44 0 34.1503 0 22Z" fill="url(#paint0_linear)" />
    <path d="M298 13.9844L306.016 22L298 30.0156L296.594 28.6094L302.172 22.9844H289.984V21.0156H302.172L296.594 15.3906L298 13.9844Z" fill="white" />
    <path d="M102.864 17.6V26H100.932V19.184H97.1401V26H95.2081V17.6H102.864ZM111.45 24.44V26H104.946V17.6H111.294V19.16H106.878V20.984H110.778V22.496H106.878V24.44H111.45ZM116.657 17.6C117.401 17.6 118.045 17.724 118.589 17.972C119.141 18.22 119.565 18.572 119.861 19.028C120.157 19.484 120.305 20.024 120.305 20.648C120.305 21.264 120.157 21.804 119.861 22.268C119.565 22.724 119.141 23.076 118.589 23.324C118.045 23.564 117.401 23.684 116.657 23.684H114.965V26H113.021V17.6H116.657ZM116.549 22.1C117.133 22.1 117.577 21.976 117.881 21.728C118.185 21.472 118.337 21.112 118.337 20.648C118.337 20.176 118.185 19.816 117.881 19.568C117.577 19.312 117.133 19.184 116.549 19.184H114.965V22.1H116.549ZM128.091 24.44V26H121.587V17.6H127.935V19.16H123.519V20.984H127.419V22.496H123.519V24.44H128.091ZM129.661 17.6H131.593V23.072L135.601 17.6H137.425V26H135.505V20.54L131.497 26H129.661V17.6ZM133.537 17.06C132.001 17.06 131.225 16.448 131.209 15.224H132.541C132.557 15.808 132.889 16.1 133.537 16.1C133.857 16.1 134.101 16.028 134.269 15.884C134.437 15.732 134.525 15.512 134.533 15.224H135.865C135.857 15.824 135.661 16.28 135.277 16.592C134.893 16.904 134.313 17.06 133.537 17.06ZM145.937 19.184H143.249V26H141.329V19.184H138.653V17.6H145.937V19.184ZM147.157 17.6H149.089V23.072L153.097 17.6H154.921V26H153.001V20.54L148.993 26H147.157V17.6ZM163.663 22.616H162.319V26H160.387V17.6H162.319V20.996H163.711L165.919 17.6H167.971L165.223 21.656L168.055 26H165.847L163.663 22.616ZM176.642 26.144C175.77 26.144 174.982 25.956 174.278 25.58C173.582 25.204 173.034 24.688 172.634 24.032C172.242 23.368 172.046 22.624 172.046 21.8C172.046 20.976 172.242 20.236 172.634 19.58C173.034 18.916 173.582 18.396 174.278 18.02C174.982 17.644 175.77 17.456 176.642 17.456C177.514 17.456 178.298 17.644 178.994 18.02C179.69 18.396 180.238 18.916 180.638 19.58C181.038 20.236 181.238 20.976 181.238 21.8C181.238 22.624 181.038 23.368 180.638 24.032C180.238 24.688 179.69 25.204 178.994 25.58C178.298 25.956 177.514 26.144 176.642 26.144ZM176.642 24.488C177.138 24.488 177.586 24.376 177.986 24.152C178.386 23.92 178.698 23.6 178.922 23.192C179.154 22.784 179.27 22.32 179.27 21.8C179.27 21.28 179.154 20.816 178.922 20.408C178.698 20 178.386 19.684 177.986 19.46C177.586 19.228 177.138 19.112 176.642 19.112C176.146 19.112 175.698 19.228 175.298 19.46C174.898 19.684 174.582 20 174.35 20.408C174.126 20.816 174.014 21.28 174.014 21.8C174.014 22.32 174.126 22.784 174.35 23.192C174.582 23.6 174.898 23.92 175.298 24.152C175.698 24.376 176.146 24.488 176.642 24.488ZM190.391 17.6V26H188.459V19.184H184.667V26H182.735V17.6H190.391ZM199.903 17.6V26H197.983V19.184H195.103L195.043 20.936C195.003 22.128 194.907 23.096 194.755 23.84C194.603 24.576 194.347 25.144 193.987 25.544C193.635 25.936 193.139 26.132 192.499 26.132C192.235 26.132 191.915 26.088 191.539 26L191.659 24.356C191.763 24.388 191.879 24.404 192.007 24.404C192.471 24.404 192.795 24.132 192.979 23.588C193.163 23.036 193.279 22.176 193.327 21.008L193.447 17.6H199.903ZM207.689 24.2H203.789L203.045 26H201.053L204.797 17.6H206.717L210.473 26H208.433L207.689 24.2ZM207.077 22.724L205.745 19.508L204.413 22.724H207.077ZM217.585 19.184H214.897V26H212.977V19.184H210.301V17.6H217.585V19.184ZM225.31 24.44V26H218.806V17.6H225.154V19.16H220.738V20.984H224.638V22.496H220.738V24.44H225.31Z" fill="white" />
    <defs>
        <linearGradient id="paint0_linear" x1="160" y1="0" x2="160" y2="44" gradientUnits="userSpaceOnUse">
            <stop stop-color="#BC9CFF" />
            <stop offset="1" stop-color="#8BA4F9" />
        </linearGradient>
    </defs>
</svg>
